<svg width="23" height="22" viewBox="0 0 23 22" fill="none" xmlns="http://www.w3.org/2000/svg">
<path d="M4.30239 13.7446C5.85311 13.7446 7.11022 12.4875 7.11022 10.9367C7.11022 9.38601 5.85311 8.12891 4.30239 8.12891C2.75167 8.12891 1.49457 9.38601 1.49457 10.9367C1.49457 12.4875 2.75167 13.7446 4.30239 13.7446Z" fill="white"/>
<path d="M5.35835 14.4883H3.27047C1.75857 14.4883 0.486647 15.6162 0.318658 17.1281L0.00667708 19.552C-0.04132 19.8639 0.174667 20.1519 0.486647 20.2239C1.68657 20.4879 2.98249 20.6079 4.30241 20.6079C4.85438 20.6079 5.38234 20.5839 5.88631 20.5359L6.1503 18.376C6.29429 17.2481 6.84625 16.2882 7.6622 15.6162C7.13424 14.9203 6.27029 14.4883 5.35835 14.4883Z" fill="white"/>
<path d="M18.5095 13.7446C20.0602 13.7446 21.3173 12.4875 21.3173 10.9367C21.3173 9.38601 20.0602 8.12891 18.5095 8.12891C16.9588 8.12891 15.7017 9.38601 15.7017 10.9367C15.7017 12.4875 16.9588 13.7446 18.5095 13.7446Z" fill="white"/>
<path d="M22.5173 17.1281C22.3493 15.6162 21.0534 14.4883 19.5655 14.4883H17.4776C16.5417 14.4883 15.7017 14.9203 15.1498 15.6162C15.9657 16.2882 16.5417 17.2481 16.6617 18.376L16.9257 20.5359C17.4296 20.5839 17.9816 20.6079 18.5096 20.6079C19.8535 20.6079 21.1254 20.4639 22.3253 20.2239C22.6373 20.1519 22.8293 19.8639 22.8053 19.552L22.5173 17.1281Z" fill="white"/>
<path d="M12.438 15.9043H10.3501C8.83821 15.9043 7.56629 17.0322 7.3983 18.5201L7.11031 20.944C7.06232 21.256 7.2783 21.5679 7.59029 21.6159C8.79021 21.8799 10.0861 21.9999 11.406 21.9999C12.75 21.9999 14.0219 21.8559 15.2218 21.6159C15.5338 21.5439 15.7258 21.256 15.7018 20.944L15.4138 18.5201C15.2218 17.0322 13.9499 15.9043 12.438 15.9043Z" fill="white"/>
<path d="M11.406 15.1606C12.9567 15.1606 14.2138 13.9035 14.2138 12.3527C14.2138 10.802 12.9567 9.54492 11.406 9.54492C9.85525 9.54492 8.59814 10.802 8.59814 12.3527C8.59814 13.9035 9.85525 15.1606 11.406 15.1606Z" fill="white"/>
<path d="M8.79006 4.98569C8.95805 5.12968 9.03004 5.36967 8.98205 5.58565L8.52607 7.45754C8.40608 7.9855 8.98205 8.39348 9.43802 8.1055L11.0939 7.09756C11.2859 6.97757 11.5259 6.97757 11.7179 7.09756L13.3738 8.1055C13.8297 8.39348 14.4057 7.96151 14.2857 7.45754L13.8297 5.58565C13.7817 5.36967 13.8537 5.12968 14.0217 4.98569L15.4856 3.73777C15.8936 3.37779 15.6776 2.70583 15.1497 2.68183L13.2298 2.51384C13.0138 2.48985 12.7978 2.34585 12.7258 2.15387L11.9819 0.377977C11.7659 -0.125992 11.0699 -0.125992 10.8539 0.377977L10.11 2.12987C10.014 2.34585 9.82199 2.48985 9.60601 2.48985L7.68613 2.65784C7.15816 2.70583 6.94217 3.37779 7.35015 3.71377L8.79006 4.98569Z" fill="white"/>
</svg>
