<svg width="116" height="20" viewBox="0 0 116 20" fill="none" xmlns="http://www.w3.org/2000/svg">
<path d="M19.2147 9.19915L15.4559 12.4795L16.5819 17.3635C16.6415 17.6188 16.6245 17.886 16.533 18.1317C16.4415 18.3774 16.2797 18.5907 16.0677 18.7449C15.8556 18.8991 15.6029 18.9874 15.3409 18.9988C15.079 19.0101 14.8195 18.944 14.595 18.8086L10.3353 16.225L6.08479 18.8086C5.86024 18.944 5.60078 19.0101 5.33885 18.9988C5.07692 18.9874 4.82414 18.8991 4.61211 18.7449C4.40009 18.5907 4.23823 18.3774 4.14677 18.1317C4.05531 17.886 4.03831 17.6188 4.09789 17.3635L5.22219 12.4845L1.46257 9.19915C1.26372 9.02765 1.11993 8.80125 1.04924 8.54836C0.978541 8.29546 0.984083 8.02732 1.06517 7.77757C1.14626 7.52781 1.29928 7.30755 1.50504 7.14441C1.71081 6.98128 1.96016 6.88252 2.22183 6.86053L7.17742 6.43132L9.11182 1.81743C9.21284 1.57533 9.38323 1.36853 9.60153 1.22308C9.81984 1.07762 10.0763 1 10.3386 1C10.601 1 10.8574 1.07762 11.0757 1.22308C11.294 1.36853 11.4644 1.57533 11.5654 1.81743L13.5057 6.43132L18.4596 6.86053C18.7213 6.88252 18.9706 6.98128 19.1764 7.14441C19.3822 7.30755 19.5352 7.52781 19.6163 7.77757C19.6974 8.02732 19.7029 8.29546 19.6322 8.54836C19.5615 8.80125 19.4177 9.02765 19.2189 9.19915H19.2147Z" fill="#FFC700"/>
<path d="M43.2147 9.19915L39.4559 12.4795L40.5819 17.3635C40.6415 17.6188 40.6245 17.886 40.533 18.1317C40.4415 18.3774 40.2797 18.5907 40.0677 18.7449C39.8556 18.8991 39.6029 18.9874 39.3409 18.9988C39.079 19.0101 38.8195 18.944 38.595 18.8086L34.3353 16.225L30.0848 18.8086C29.8602 18.944 29.6008 19.0101 29.3388 18.9988C29.0769 18.9874 28.8241 18.8991 28.6121 18.7449C28.4001 18.5907 28.2382 18.3774 28.1468 18.1317C28.0553 17.886 28.0383 17.6188 28.0979 17.3635L29.2222 12.4845L25.4626 9.19915C25.2637 9.02765 25.1199 8.80125 25.0492 8.54836C24.9785 8.29546 24.9841 8.02732 25.0652 7.77757C25.1463 7.52781 25.2993 7.30755 25.505 7.14441C25.7108 6.98128 25.9602 6.88252 26.2218 6.86053L31.1774 6.43132L33.1118 1.81743C33.2128 1.57533 33.3832 1.36853 33.6015 1.22308C33.8198 1.07762 34.0763 1 34.3386 1C34.601 1 34.8574 1.07762 35.0757 1.22308C35.294 1.36853 35.4644 1.57533 35.5654 1.81743L37.5057 6.43132L42.4596 6.86053C42.7213 6.88252 42.9706 6.98128 43.1764 7.14441C43.3822 7.30755 43.5352 7.52781 43.6163 7.77757C43.6974 8.02732 43.7029 8.29546 43.6322 8.54836C43.5615 8.80125 43.4177 9.02765 43.2189 9.19915H43.2147Z" fill="#FFC700"/>
<path d="M67.2147 9.19915L63.4559 12.4795L64.5819 17.3635C64.6415 17.6188 64.6245 17.886 64.533 18.1317C64.4415 18.3774 64.2797 18.5907 64.0677 18.7449C63.8556 18.8991 63.6029 18.9874 63.3409 18.9988C63.079 19.0101 62.8195 18.944 62.595 18.8086L58.3353 16.225L54.0848 18.8086C53.8602 18.944 53.6008 19.0101 53.3388 18.9988C53.0769 18.9874 52.8241 18.8991 52.6121 18.7449C52.4001 18.5907 52.2382 18.3774 52.1468 18.1317C52.0553 17.886 52.0383 17.6188 52.0979 17.3635L53.2222 12.4845L49.4626 9.19915C49.2637 9.02765 49.1199 8.80125 49.0492 8.54836C48.9785 8.29546 48.9841 8.02732 49.0652 7.77757C49.1463 7.52781 49.2993 7.30755 49.505 7.14441C49.7108 6.98128 49.9602 6.88252 50.2218 6.86053L55.1774 6.43132L57.1118 1.81743C57.2128 1.57533 57.3832 1.36853 57.6015 1.22308C57.8198 1.07762 58.0763 1 58.3386 1C58.601 1 58.8574 1.07762 59.0757 1.22308C59.294 1.36853 59.4644 1.57533 59.5654 1.81743L61.5057 6.43132L66.4596 6.86053C66.7213 6.88252 66.9706 6.98128 67.1764 7.14441C67.3822 7.30755 67.5352 7.52781 67.6163 7.77757C67.6974 8.02732 67.7029 8.29546 67.6322 8.54836C67.5615 8.80125 67.4177 9.02765 67.2189 9.19915H67.2147Z" fill="#FFC700"/>
<path d="M91.2147 9.19915L87.4559 12.4795L88.5819 17.3635C88.6415 17.6188 88.6245 17.886 88.533 18.1317C88.4415 18.3774 88.2797 18.5907 88.0677 18.7449C87.8556 18.8991 87.6029 18.9874 87.3409 18.9988C87.079 19.0101 86.8195 18.944 86.595 18.8086L82.3353 16.225L78.0848 18.8086C77.8602 18.944 77.6008 19.0101 77.3388 18.9988C77.0769 18.9874 76.8241 18.8991 76.6121 18.7449C76.4001 18.5907 76.2382 18.3774 76.1468 18.1317C76.0553 17.886 76.0383 17.6188 76.0979 17.3635L77.2222 12.4845L73.4626 9.19915C73.2637 9.02765 73.1199 8.80125 73.0492 8.54836C72.9785 8.29546 72.9841 8.02732 73.0652 7.77757C73.1463 7.52781 73.2993 7.30755 73.505 7.14441C73.7108 6.98128 73.9602 6.88252 74.2218 6.86053L79.1774 6.43132L81.1118 1.81743C81.2128 1.57533 81.3832 1.36853 81.6015 1.22308C81.8198 1.07762 82.0763 1 82.3386 1C82.601 1 82.8574 1.07762 83.0757 1.22308C83.294 1.36853 83.4644 1.57533 83.5654 1.81743L85.5057 6.43132L90.4596 6.86053C90.7213 6.88252 90.9706 6.98128 91.1764 7.14441C91.3822 7.30755 91.5352 7.52781 91.6163 7.77757C91.6974 8.02732 91.7029 8.29546 91.6322 8.54836C91.5615 8.80125 91.4177 9.02765 91.2189 9.19915H91.2147Z" fill="#FDC500"/>
<path d="M115.215 9.19915L111.456 12.4795L112.582 17.3635C112.641 17.6188 112.624 17.886 112.533 18.1317C112.442 18.3774 112.28 18.5907 112.068 18.7449C111.856 18.8991 111.603 18.9874 111.341 18.9988C111.079 19.0101 110.82 18.944 110.595 18.8086L106.335 16.225L102.085 18.8086C101.86 18.944 101.601 19.0101 101.339 18.9988C101.077 18.9874 100.824 18.8991 100.612 18.7449C100.4 18.5907 100.238 18.3774 100.147 18.1317C100.055 17.886 100.038 17.6188 100.098 17.3635L101.222 12.4845L97.4626 9.19915C97.2637 9.02765 97.1199 8.80125 97.0492 8.54836C96.9785 8.29546 96.9841 8.02732 97.0652 7.77757C97.1463 7.52781 97.2993 7.30755 97.505 7.14441C97.7108 6.98128 97.9602 6.88252 98.2218 6.86053L103.177 6.43132L105.112 1.81743C105.213 1.57533 105.383 1.36853 105.602 1.22308C105.82 1.07762 106.076 1 106.339 1C106.601 1 106.857 1.07762 107.076 1.22308C107.294 1.36853 107.464 1.57533 107.565 1.81743L109.506 6.43132L114.46 6.86053C114.721 6.88252 114.971 6.98128 115.176 7.14441C115.382 7.30755 115.535 7.52781 115.616 7.77757C115.697 8.02732 115.703 8.29546 115.632 8.54836C115.562 8.80125 115.418 9.02765 115.219 9.19915H115.215Z" fill="white" fill-opacity="0.3"/>
</svg>
