<svg width="16" height="16" viewBox="0 0 16 16" fill="none" xmlns="http://www.w3.org/2000/svg">
<path d="M9.51688 2.3705C9.53385 2.30704 9.56316 2.24755 9.60313 2.19543C9.64311 2.14331 9.69296 2.09957 9.74984 2.06672C9.80672 2.03387 9.86951 2.01254 9.93464 2.00397C9.99976 1.9954 10.0659 1.99974 10.1294 2.01675C11.0563 2.25859 11.902 2.74315 12.5794 3.42052C13.2567 4.09789 13.7413 4.94358 13.9831 5.8705C14.0001 5.93394 14.0045 6.00012 13.9959 6.06524C13.9873 6.13037 13.966 6.19316 13.9332 6.25004C13.9003 6.30692 13.8566 6.35677 13.8044 6.39675C13.7523 6.43672 13.6928 6.46603 13.6294 6.483C13.5871 6.49409 13.5437 6.49976 13.5 6.49987C13.3899 6.49991 13.2829 6.4636 13.1955 6.39659C13.1082 6.32957 13.0454 6.2356 13.0169 6.12925C12.8197 5.37246 12.4243 4.68195 11.8714 4.1289C11.3184 3.57586 10.628 3.18029 9.87126 2.983C9.80774 2.96609 9.74819 2.93683 9.696 2.89689C9.6438 2.85695 9.6 2.80711 9.56708 2.75022C9.53417 2.69333 9.51279 2.63051 9.50418 2.56536C9.49557 2.5002 9.49988 2.43399 9.51688 2.3705ZM9.37126 4.983C10.2331 5.213 10.7869 5.76737 11.0169 6.62925C11.0454 6.7356 11.1082 6.82957 11.1955 6.89659C11.2829 6.9636 11.3899 6.99991 11.5 6.99987C11.5437 6.99976 11.5871 6.99409 11.6294 6.983C11.6928 6.96603 11.7523 6.93672 11.8044 6.89675C11.8566 6.85677 11.9003 6.80692 11.9332 6.75004C11.966 6.69316 11.9873 6.63037 11.9959 6.56524C12.0045 6.50012 12.0001 6.43394 11.9831 6.3705C11.6631 5.173 10.8269 4.33675 9.62938 4.01675C9.56594 3.9998 9.49977 3.99551 9.43467 4.00413C9.36957 4.01275 9.30681 4.03411 9.24996 4.06699C9.19311 4.09987 9.1433 4.14362 9.10336 4.19575C9.06342 4.24788 9.03414 4.30737 9.01719 4.37081C9.00024 4.43426 8.99596 4.50042 9.00458 4.56552C9.0132 4.63062 9.03456 4.69339 9.06744 4.75023C9.10031 4.80708 9.14407 4.85689 9.1962 4.89683C9.24833 4.93677 9.30781 4.96605 9.37126 4.983ZM13.8981 9.90362L10.9538 8.58425L10.9456 8.5805C10.7928 8.51512 10.626 8.48888 10.4605 8.50416C10.2949 8.51944 10.1358 8.57575 9.99751 8.668C9.98122 8.67875 9.96557 8.69044 9.95063 8.703L8.42938 9.99987C7.46563 9.53175 6.47063 8.54425 6.00251 7.593L7.30126 6.04862C7.31376 6.033 7.32563 6.01737 7.33688 6.0005C7.42715 5.86256 7.48192 5.70445 7.49631 5.54023C7.5107 5.37601 7.48428 5.21078 7.41938 5.05925V5.05175L6.09626 2.10237C6.01047 1.90441 5.86296 1.73951 5.67575 1.63227C5.48854 1.52504 5.27166 1.48122 5.05751 1.50737C4.21061 1.61882 3.43324 2.03473 2.87059 2.67743C2.30794 3.32014 1.99847 4.14568 2.00001 4.99987C2.00001 9.96237 6.03751 13.9999 11 13.9999C11.8542 14.0014 12.6797 13.6919 13.3224 13.1293C13.9651 12.5666 14.3811 11.7893 14.4925 10.9424C14.5187 10.7283 14.475 10.5115 14.3679 10.3243C14.2607 10.1371 14.096 9.98951 13.8981 9.90362Z" fill="white"/>
</svg>
