<svg width="24" height="24" viewBox="0 0 24 24" fill="none" xmlns="http://www.w3.org/2000/svg">
<path d="M1 7.625C1 6.176 2.176 5 3.625 5H19.375C20.824 5 22 6.176 22 7.625V17.375C22 18.0712 21.7234 18.7389 21.2312 19.2312C20.7389 19.7234 20.0712 20 19.375 20H3.625C2.92881 20 2.26113 19.7234 1.76884 19.2312C1.27656 18.7389 1 18.0712 1 17.375V7.625ZM7.3915 12.071C7.65881 12.071 7.92349 12.0184 8.17045 11.9161C8.41741 11.8138 8.6418 11.6638 8.83082 11.4748C9.01983 11.2858 9.16976 11.0614 9.27206 10.8145C9.37435 10.5675 9.427 10.3028 9.427 10.0355C9.427 9.76819 9.37435 9.50351 9.27206 9.25655C9.16976 9.00959 9.01983 8.7852 8.83082 8.59618C8.6418 8.40717 8.41741 8.25724 8.17045 8.15494C7.92349 8.05265 7.65881 8 7.3915 8C6.85165 8 6.33391 8.21445 5.95218 8.59618C5.57045 8.97791 5.356 9.49565 5.356 10.0355C5.356 10.5753 5.57045 11.0931 5.95218 11.4748C6.33391 11.8565 6.85165 12.071 7.3915 12.071ZM5.287 13.088C4.94567 13.088 4.61831 13.2236 4.37695 13.465C4.13559 13.7063 4 14.0337 4 14.375C4.00005 14.9336 4.18682 15.4762 4.53063 15.9165C4.87444 16.3568 5.35555 16.6695 5.8975 16.805L5.977 16.826C6.907 17.0585 7.8775 17.0585 8.806 16.826L8.887 16.8065C9.42895 16.671 9.91006 16.3583 10.2539 15.918C10.5977 15.4777 10.7845 14.9351 10.7845 14.3765C10.7847 14.2074 10.7516 14.0398 10.687 13.8835C10.6224 13.7272 10.5276 13.5852 10.4081 13.4655C10.2885 13.3458 10.1466 13.2509 9.99036 13.1861C9.83412 13.1213 9.66664 13.088 9.4975 13.088H5.287ZM13.75 9.5C13.5511 9.5 13.3603 9.57902 13.2197 9.71967C13.079 9.86032 13 10.0511 13 10.25C13 10.4489 13.079 10.6397 13.2197 10.7803C13.3603 10.921 13.5511 11 13.75 11H18.25C18.4489 11 18.6397 10.921 18.7803 10.7803C18.921 10.6397 19 10.4489 19 10.25C19 10.0511 18.921 9.86032 18.7803 9.71967C18.6397 9.57902 18.4489 9.5 18.25 9.5H13.75ZM13.75 14C13.5511 14 13.3603 14.079 13.2197 14.2197C13.079 14.3603 13 14.5511 13 14.75C13 14.9489 13.079 15.1397 13.2197 15.2803C13.3603 15.421 13.5511 15.5 13.75 15.5H18.25C18.4489 15.5 18.6397 15.421 18.7803 15.2803C18.921 15.1397 19 14.9489 19 14.75C19 14.5511 18.921 14.3603 18.7803 14.2197C18.6397 14.079 18.4489 14 18.25 14H13.75Z" fill="white"/>
</svg>
