<svg width="16" height="22" viewBox="0 0 16 22" fill="none" xmlns="http://www.w3.org/2000/svg">
<path d="M7.7 10.45C6.97065 10.45 6.27118 10.1603 5.75546 9.64454C5.23973 9.12882 4.95 8.42935 4.95 7.7C4.95 6.97065 5.23973 6.27118 5.75546 5.75546C6.27118 5.23973 6.97065 4.95 7.7 4.95C8.42935 4.95 9.12882 5.23973 9.64454 5.75546C10.1603 6.27118 10.45 6.97065 10.45 7.7C10.45 8.06114 10.3789 8.41873 10.2407 8.75238C10.1025 9.08603 9.89991 9.38918 9.64454 9.64454C9.38918 9.89991 9.08603 10.1025 8.75238 10.2407C8.41873 10.3789 8.06114 10.45 7.7 10.45ZM7.7 0C5.65783 0 3.69931 0.811248 2.25528 2.25528C0.811248 3.69931 0 5.65783 0 7.7C0 13.475 7.7 22 7.7 22C7.7 22 15.4 13.475 15.4 7.7C15.4 5.65783 14.5888 3.69931 13.1447 2.25528C11.7007 0.811248 9.74217 0 7.7 0Z" fill="white" fill-opacity="0.7"/>
</svg>
