<svg width="30" height="30" viewBox="0 0 30 30" fill="none" xmlns="http://www.w3.org/2000/svg">
<path d="M25.1563 19.5705C25.0674 19.4633 24.9801 19.3562 24.8944 19.2528C23.7158 17.8272 23.0027 16.9669 23.0027 12.9313C23.0027 10.8419 22.5029 9.12761 21.5177 7.84188C20.7912 6.89204 19.8093 6.17149 18.515 5.63898C18.4983 5.62971 18.4834 5.61756 18.471 5.60308C18.0055 4.04413 16.7315 3 15.2947 3C13.8579 3 12.5845 4.04413 12.1189 5.60148C12.1065 5.61542 12.0919 5.62719 12.0755 5.6363C9.05513 6.87971 7.58725 9.26529 7.58725 12.9296C7.58725 16.9669 6.87527 17.8272 5.69561 19.2512C5.60989 19.3546 5.52257 19.4596 5.43364 19.5689C5.20392 19.8459 5.05838 20.183 5.01423 20.5401C4.97008 20.8973 5.02918 21.2596 5.18453 21.5843C5.51507 22.2807 6.21955 22.713 7.02367 22.713H23.5717C24.372 22.713 25.0717 22.2812 25.4033 21.588C25.5593 21.2633 25.619 20.9007 25.5752 20.5431C25.5314 20.1855 25.3861 19.848 25.1563 19.5705Z" fill="#61D180"/>
<path d="M15.2946 27.0002C16.0688 26.9996 16.8283 26.7894 17.4927 26.3921C18.157 25.9947 18.7015 25.4249 19.0683 24.7432C19.0855 24.7105 19.0941 24.6739 19.093 24.637C19.092 24.6 19.0814 24.564 19.0623 24.5323C19.0432 24.5007 19.0163 24.4745 18.9841 24.4564C18.9519 24.4382 18.9156 24.4287 18.8786 24.4287H11.7117C11.6747 24.4286 11.6383 24.438 11.606 24.4562C11.5737 24.4743 11.5467 24.5004 11.5276 24.5321C11.5084 24.5638 11.4978 24.5999 11.4967 24.6368C11.4957 24.6738 11.5042 24.7105 11.5215 24.7432C11.8882 25.4248 12.4326 25.9946 13.0969 26.3919C13.7611 26.7893 14.5206 26.9995 15.2946 27.0002Z" fill="#61D180"/>
</svg>
