<svg width="34" height="34" viewBox="0 0 34 34" fill="none" xmlns="http://www.w3.org/2000/svg">
<path d="M25.5 22.6668C24.3837 22.6668 23.3764 23.106 22.6185 23.8101L12.6225 17.9918C12.6933 17.666 12.75 17.3402 12.75 17.0002C12.75 16.6602 12.6933 16.3343 12.6225 16.0085L22.61 10.186C23.375 10.8943 24.3808 11.3335 25.5 11.3335C27.8517 11.3335 29.75 9.43516 29.75 7.0835C29.75 4.73183 27.8517 2.8335 25.5 2.8335C23.1483 2.8335 21.25 4.73183 21.25 7.0835C21.25 7.4235 21.3067 7.74933 21.3775 8.07516L11.39 13.8977C10.625 13.1893 9.61917 12.7502 8.5 12.7502C6.14833 12.7502 4.25 14.6485 4.25 17.0002C4.25 19.3518 6.14833 21.2502 8.5 21.2502C9.61917 21.2502 10.625 20.811 11.39 20.1027L21.3747 25.9365C21.2949 26.2573 21.253 26.5863 21.25 26.9168C21.25 27.7574 21.4993 28.5791 21.9663 29.278C22.4333 29.9769 23.097 30.5217 23.8736 30.8433C24.6502 31.165 25.5047 31.2492 26.3291 31.0852C27.1536 30.9212 27.9108 30.5164 28.5052 29.922C29.0996 29.3277 29.5044 28.5704 29.6683 27.746C29.8323 26.9216 29.7482 26.067 29.4265 25.2904C29.1048 24.5138 28.5601 23.8501 27.8612 23.3831C27.1623 22.9161 26.3406 22.6668 25.5 22.6668Z" fill="white"/>
</svg>
