<svg width="23" height="22" viewBox="0 0 23 22" fill="none" xmlns="http://www.w3.org/2000/svg">
<path d="M22.2625 10.0212L17.6684 14.0305L19.0446 19.9998C19.1174 20.3118 19.0966 20.6384 18.9848 20.9387C18.8731 21.239 18.6752 21.4997 18.4161 21.6882C18.1569 21.8767 17.848 21.9846 17.5279 21.9985C17.2077 22.0123 16.8906 21.9315 16.6161 21.7661L11.4099 18.6083L6.21481 21.7661C5.94036 21.9315 5.62324 22.0123 5.3031 21.9985C4.98296 21.9846 4.67401 21.8767 4.41486 21.6882C4.15572 21.4997 3.95789 21.239 3.84611 20.9387C3.73433 20.6384 3.71355 20.3118 3.78637 19.9998L5.16051 14.0367L0.565429 10.0212C0.32239 9.81157 0.146648 9.53486 0.0602404 9.22577C-0.026167 8.91668 -0.0193931 8.58895 0.0797128 8.28369C0.178819 7.97843 0.365845 7.70923 0.617337 7.50984C0.86883 7.31045 1.17359 7.18975 1.49341 7.16287L7.55024 6.63827L9.91451 0.999083C10.038 0.703184 10.2462 0.45043 10.513 0.272647C10.7799 0.094864 11.0933 0 11.4139 0C11.7346 0 12.048 0.094864 12.3148 0.272647C12.5817 0.45043 12.7899 0.703184 12.9134 0.999083L15.2848 6.63827L21.3396 7.16287C21.6594 7.18975 21.9642 7.31045 22.2156 7.50984C22.4671 7.70923 22.6542 7.97843 22.7533 8.28369C22.8524 8.58895 22.8592 8.91668 22.7727 9.22577C22.6863 9.53486 22.5106 9.81157 22.2676 10.0212H22.2625Z" fill="white"/>
</svg>
