<svg width="120" height="120" viewBox="0 0 120 120" fill="none" xmlns="http://www.w3.org/2000/svg">
<path d="M37.2128 33.6493C43.1911 33.6493 48.0374 28.8029 48.0374 22.8246C48.0374 16.8463 43.1911 12 37.2128 12C31.2345 12 26.3882 16.8463 26.3882 22.8246C26.3882 28.8029 31.2345 33.6493 37.2128 33.6493Z" fill="#61D180"/>
<path d="M58.5341 77.7422H43.2786V53.1397L52.1107 61.972H69.7133C71.0928 61.972 72.328 61.4161 73.2339 60.5102C74.1397 59.6043 74.6956 58.3691 74.6956 56.9896C74.6956 54.2309 72.4721 52.0074 69.7133 52.0074H57.1342L47.3756 41.4459C44.7609 38.6459 41.1169 37.04 37.2875 37.04H32.5317C27.6524 37.04 23.679 41.0136 23.679 45.8929V79.8628C23.679 85.3597 28.1465 89.8272 33.6435 89.8272H57.7312V107.1H66.8517V86.0597C66.8517 81.4686 63.1252 77.7422 58.5341 77.7422Z" fill="#61D180"/>
<path d="M49.1923 95.0102H31.5338C24.1361 95.0102 18.1176 88.9927 18.1176 81.5939V50.9826C18.1176 49.8457 17.1957 48.9238 16.0588 48.9238C14.9218 48.9238 14 49.8457 14 50.9826V81.5939C14 91.2626 21.8652 99.1277 31.5338 99.1277H32.2204V105.941C32.2204 107.079 33.1422 108 34.2792 108C35.4162 108 36.338 107.079 36.338 105.941V99.1277H49.1923C50.3293 99.1277 51.2511 98.2069 51.2511 97.069C51.2511 95.931 50.3293 95.0102 49.1923 95.0102Z" fill="#61D180"/>
<path d="M56.1382 74.0261H76.3434V105.941C76.3434 107.079 77.2652 108 78.4022 108C79.5391 108 80.4609 107.079 80.4609 105.941V74.0261H100.667V64.7578H56.1382V74.0261Z" fill="#61D180"/>
<path d="M103.992 37.4314C102.036 36.505 99.7302 37.3285 98.7832 39.2637L91.8863 53.5929H78.1542C78.5865 54.6429 78.8131 55.7958 78.8131 56.9898C78.8131 58.5545 78.4219 60.0575 77.6602 61.3956H94.3568C95.8391 61.3956 97.198 60.531 97.8568 59.1927L105.804 42.6195C106.751 40.6843 105.927 38.3785 103.992 37.4314Z" fill="#61D180"/>
<path d="M83.3418 25.0371L88.5712 20.0754C88.3446 19.3961 87.7064 18.9225 86.9653 18.9225H82.3809V16.3667C82.3809 14.3009 80.7011 12.6201 78.6353 12.6201H72.3001C70.2343 12.6201 68.5545 14.3009 68.5545 16.3667V18.9225H63.9687C63.207 18.9225 62.5687 19.4166 62.3628 20.096L67.5922 25.0371H83.3418ZM72.672 16.7377H78.2633V18.9225H72.672V16.7377Z" fill="#61D180"/>
<path d="M63.9693 37.5344H86.9659C87.913 37.5344 88.6747 36.7726 88.6747 35.8256V25.6758L85.5865 28.5992C85.1954 28.9492 84.6807 29.1551 84.166 29.1551H66.7692C66.2545 29.1551 65.7398 28.9492 65.3487 28.5992L62.2605 25.6758V35.8256C62.2605 36.7726 63.0222 37.5344 63.9693 37.5344Z" fill="#61D180"/>
</svg>
