<svg width="120" height="120" viewBox="0 0 120 120" fill="none" xmlns="http://www.w3.org/2000/svg">
<path d="M78.43 20.9265V16.8716L86.3268 24.7684H82.2719C81.2534 24.7671 80.2769 24.3619 79.5567 23.6417C78.8365 22.9215 78.4313 21.945 78.43 20.9265ZM24.2665 94.3316V21.8274H22.8419C21.8235 21.8284 20.847 22.2334 20.1268 22.9535C19.4065 23.6736 19.0013 24.6499 19 25.6684V101.158C19.0013 102.177 19.4065 103.153 20.1267 103.873C20.8469 104.594 21.8234 104.999 22.8419 105H76.4442C77.4627 104.999 78.4392 104.594 79.1594 103.873C79.8797 103.153 80.2848 102.177 80.2861 101.158V100.82H30.7552C29.0349 100.818 27.3856 100.134 26.1692 98.9176C24.9528 97.7011 24.2685 96.0519 24.2665 94.3316ZM88.1994 82.6781V94.3316C88.1981 95.3501 87.7929 96.3264 87.0726 97.0465C86.3524 97.7666 85.3759 98.1716 84.3574 98.1726H30.7552C29.7369 98.1713 28.7606 97.7662 28.0406 97.0462C27.3206 96.3261 26.9155 95.3499 26.9142 94.3316V18.8419C26.9152 17.8235 27.3202 16.847 28.0403 16.1268C28.7603 15.4065 29.7367 15.0013 30.7552 15H75.7832V20.9265C75.785 22.6461 76.4685 24.2948 77.6839 25.5113C78.8993 26.7278 80.5475 27.4128 82.2671 27.4161H88.1945V51.7819C85.2531 54.464 81.6295 56.2839 77.7216 57.0416C77.4468 57.0883 77.1938 57.2205 76.9987 57.4195C76.8035 57.6185 76.6762 57.874 76.6348 58.1497C76.5719 58.5735 76.5235 58.9984 76.4819 59.4232H65.9064C65.5553 59.4232 65.2186 59.5627 64.9703 59.811C64.7221 60.0592 64.5826 60.396 64.5826 60.7471C64.5826 61.0982 64.7221 61.4349 64.9703 61.6832C65.2186 61.9315 65.5553 62.071 65.9064 62.071H76.3581C76.3708 65.2452 76.9787 68.3889 78.1503 71.339H56.8203C56.4692 71.339 56.1325 71.4785 55.8842 71.7268C55.6359 71.9751 55.4964 72.3118 55.4964 72.6629C55.4964 73.014 55.6359 73.3507 55.8842 73.599C56.1325 73.8473 56.4692 73.9868 56.8203 73.9868H79.4103C81.411 77.693 84.471 80.7189 88.1994 82.6781ZM48.3284 65.3816C47.9836 65.3909 47.6561 65.5345 47.4155 65.7816C47.1749 66.0288 47.0403 66.3601 47.0403 66.705C47.0403 67.0499 47.1749 67.3812 47.4155 67.6284C47.6561 67.8755 47.9836 68.0191 48.3284 68.0284H73.4548C73.7996 68.0191 74.1272 67.8755 74.3677 67.6284C74.6083 67.3812 74.7429 67.0499 74.7429 66.705C74.7429 66.3601 74.6083 66.0288 74.3677 65.7816C74.1272 65.5345 73.7996 65.3909 73.4548 65.3816H48.3284ZM52.5439 71.339H35.8852C35.534 71.339 35.1973 71.4785 34.949 71.7268C34.7008 71.9751 34.5613 72.3118 34.5613 72.6629C34.5613 73.014 34.7008 73.3507 34.949 73.599C35.1973 73.8473 35.534 73.9868 35.8852 73.9868H52.5429C52.894 73.9868 53.2307 73.8473 53.479 73.599C53.7273 73.3507 53.8668 73.014 53.8668 72.6629C53.8668 72.3118 53.7273 71.9751 53.479 71.7268C53.2307 71.4785 52.895 71.339 52.5439 71.339ZM48.1116 62.071H58.9571C59.1309 62.071 59.3031 62.0367 59.4637 61.9702C59.6243 61.9037 59.7703 61.8061 59.8932 61.6832C60.0161 61.5603 60.1137 61.4143 60.1802 61.2537C60.2467 61.0931 60.281 60.9209 60.281 60.7471C60.281 60.5732 60.2467 60.4011 60.1802 60.2405C60.1137 60.0799 60.0161 59.9339 59.8932 59.811C59.7703 59.688 59.6243 59.5905 59.4637 59.524C59.3031 59.4575 59.1309 59.4232 58.9571 59.4232H48.1116C47.7605 59.4232 47.4238 59.5627 47.1755 59.811C46.9272 60.0593 46.7877 60.396 46.7877 60.7471C46.7877 61.0982 46.9272 61.4349 47.1755 61.6832C47.4238 61.9315 47.7605 62.071 48.1116 62.071ZM81.3265 54.7897C81.3266 54.6159 81.2925 54.4437 81.226 54.2831C81.1596 54.1225 81.0622 53.9766 80.9393 53.8536C80.8165 53.7307 80.6706 53.6331 80.51 53.5666C80.3495 53.5001 80.1774 53.4658 80.0035 53.4658H48.1116C47.9348 53.461 47.7588 53.4917 47.5941 53.5561C47.4294 53.6204 47.2792 53.7171 47.1524 53.8405C47.0257 53.9639 46.925 54.1114 46.8562 54.2743C46.7874 54.4373 46.752 54.6123 46.752 54.7892C46.752 54.9661 46.7874 55.1411 46.8562 55.3041C46.925 55.467 47.0257 55.6145 47.1524 55.7379C47.2792 55.8612 47.4294 55.958 47.5941 56.0223C47.7588 56.0867 47.9348 56.1174 48.1116 56.1126H80.0035C80.3544 56.1126 80.6909 55.9732 80.939 55.7251C81.1871 55.477 81.3265 55.1405 81.3265 54.7897ZM74.8958 48.8313C74.8957 49.0052 74.9298 49.1774 74.9963 49.3381C75.0628 49.4987 75.1603 49.6447 75.2833 49.7677C75.4062 49.8907 75.5522 49.9882 75.7129 50.0546C75.8736 50.1211 76.0458 50.1553 76.2197 50.1552H80.0035C80.3483 50.1458 80.6759 50.0023 80.9164 49.7552C81.157 49.508 81.2916 49.1767 81.2916 48.8318C81.2916 48.4869 81.157 48.1556 80.9164 47.9084C80.6759 47.6612 80.3483 47.5177 80.0035 47.5084H76.2197C76.0459 47.5083 75.8737 47.5424 75.7131 47.6088C75.5525 47.6752 75.4066 47.7727 75.2836 47.8955C75.1607 48.0184 75.0631 48.1642 74.9966 48.3248C74.9301 48.4854 74.8958 48.6575 74.8958 48.8313ZM69.2742 47.5084H48.1116C47.9348 47.5036 47.7588 47.5343 47.5941 47.5987C47.4294 47.663 47.2792 47.7597 47.1524 47.8831C47.0257 48.0064 46.925 48.154 46.8562 48.3169C46.7874 48.4798 46.752 48.6549 46.752 48.8318C46.752 49.0086 46.7874 49.1837 46.8562 49.3467C46.925 49.5096 47.0257 49.6571 47.1524 49.7805C47.2792 49.9038 47.4294 50.0005 47.5941 50.0649C47.7588 50.1292 47.9348 50.1599 48.1116 50.1552H69.2742C69.451 50.1599 69.627 50.1292 69.7917 50.0649C69.9564 50.0005 70.1066 49.9038 70.2334 49.7805C70.3601 49.6571 70.4608 49.5096 70.5296 49.3467C70.5984 49.1837 70.6339 49.0086 70.6339 48.8318C70.6339 48.6549 70.5984 48.4798 70.5296 48.3169C70.4608 48.154 70.3601 48.0064 70.2334 47.8831C70.1066 47.7597 69.9564 47.663 69.7917 47.5987C69.627 47.5343 69.451 47.5036 69.2742 47.5084ZM50.801 26.7348C50.8008 27.7736 51.1086 28.7891 51.6856 29.6529C52.2626 30.5167 53.0828 31.19 54.0424 31.5877C55.0021 31.9853 56.0581 32.0895 57.0769 31.8869C58.0957 31.6844 59.0316 31.1843 59.7662 30.4498C60.5008 29.7154 61.0011 28.7796 61.2039 27.7608C61.4066 26.742 61.3026 25.6859 60.9052 24.7262C60.5077 23.7665 59.8345 22.9462 58.9708 22.369C58.1071 21.7919 57.0917 21.4839 56.0529 21.4839C54.6606 21.4854 53.3258 22.0391 52.3413 23.0235C51.3567 24.0079 50.8028 25.3426 50.801 26.7348ZM46.4219 40.7332V40.7845C46.425 41.1338 46.566 41.4677 46.8141 41.7135C47.0623 41.9593 47.3975 42.097 47.7468 42.0968H64.3581C64.7069 42.0925 65.0403 41.9525 65.2875 41.7064C65.5347 41.4603 65.6762 41.1275 65.6819 40.7787V40.7303C65.6833 38.8433 65.1298 36.9976 64.0903 35.4227C63.0509 33.8478 61.5714 32.6132 59.8358 31.8726C59.6247 31.7821 59.3936 31.7482 59.1654 31.7742C58.9372 31.8001 58.7196 31.8851 58.5342 32.0206C57.8134 32.547 56.944 32.8307 56.0514 32.8307C55.1589 32.8307 54.2895 32.547 53.5687 32.0206C53.3831 31.8851 53.1654 31.8002 52.937 31.7742C52.7086 31.7482 52.4774 31.7821 52.2661 31.8726C50.5305 32.6138 49.0512 33.849 48.0121 35.4244C46.973 36.9998 46.42 38.846 46.4219 40.7332ZM44.05 65.3816H35.8852C35.5404 65.3909 35.2128 65.5345 34.9723 65.7816C34.7317 66.0288 34.5971 66.3601 34.5971 66.705C34.5971 67.0499 34.7317 67.3812 34.9723 67.6284C35.2128 67.8755 35.5404 68.0191 35.8852 68.0284H44.05C44.2268 68.0332 44.4028 68.0025 44.5675 67.9381C44.7322 67.8738 44.8824 67.777 45.0092 67.6537C45.1359 67.5303 45.2366 67.3828 45.3054 67.2199C45.3742 67.0569 45.4097 66.8819 45.4097 66.705C45.4097 66.5281 45.3742 66.3531 45.3054 66.1901C45.2366 66.0272 45.1359 65.8797 45.0092 65.7563C44.8824 65.6329 44.7322 65.5362 44.5675 65.4719C44.4028 65.4075 44.2268 65.3768 44.05 65.3816ZM34.1577 57.0842C34.2117 57.9375 34.5675 58.7438 35.1615 59.3588C35.7554 59.9738 36.5488 60.3575 37.3997 60.4413V62.1765C37.3949 62.3533 37.4256 62.5292 37.4899 62.694C37.5543 62.8587 37.651 63.0089 37.7744 63.1356C37.8977 63.2624 38.0452 63.3631 38.2082 63.4319C38.3711 63.5007 38.5462 63.5361 38.7231 63.5361C38.8999 63.5361 39.075 63.5007 39.2379 63.4319C39.4009 63.3631 39.5484 63.2624 39.6718 63.1356C39.7951 63.0089 39.8918 62.8587 39.9562 62.694C40.0205 62.5292 40.0512 62.3533 40.0465 62.1765V60.4539C40.9157 60.389 41.7322 60.0123 42.3457 59.3931C42.9592 58.7739 43.3283 57.954 43.3852 57.0842V55.7768C43.3852 52.7168 40.451 52.4865 38.8745 52.3645C36.8045 52.2039 36.8045 52.0123 36.8045 51.5903V50.2848C36.8045 49.9713 37.3145 49.5106 38.1139 49.5106H39.43C40.2284 49.5106 40.7384 49.9664 40.7384 50.2848V51.5923C40.7336 51.7691 40.7643 51.945 40.8287 52.1098C40.893 52.2745 40.9897 52.4247 41.1131 52.5514C41.2364 52.6782 41.384 52.7789 41.5469 52.8477C41.7098 52.9165 41.8849 52.9519 42.0618 52.9519C42.2386 52.9519 42.4137 52.9165 42.5767 52.8477C42.7396 52.7789 42.8871 52.6782 43.0105 52.5514C43.1338 52.4247 43.2305 52.2745 43.2949 52.1098C43.3592 51.945 43.3899 51.7691 43.3852 51.5923V50.2848C43.3296 49.4233 42.9671 48.6102 42.3634 47.9931C41.7598 47.3759 40.9549 46.9956 40.0948 46.921V45.2342C40.0996 45.0574 40.0689 44.8814 40.0046 44.7167C39.9402 44.5519 39.8435 44.4018 39.7201 44.275C39.5968 44.1483 39.4493 44.0475 39.2863 43.9788C39.1234 43.91 38.9483 43.8745 38.7715 43.8745C38.5946 43.8745 38.4195 43.91 38.2566 43.9788C38.0936 44.0475 37.9461 44.1483 37.8228 44.275C37.6994 44.4018 37.6027 44.5519 37.5383 44.7167C37.474 44.8814 37.4433 45.0574 37.4481 45.2342V46.921C36.588 46.9956 35.7831 47.3759 35.1795 47.9931C34.5758 48.6102 34.2133 49.4233 34.1577 50.2848V51.5923C34.1577 54.6523 37.0919 54.8826 38.6694 55.0045C40.7384 55.1652 40.7384 55.3568 40.7384 55.7787V57.0861C40.7384 57.3997 40.2284 57.8555 39.43 57.8555H38.1139C37.3145 57.8555 36.8045 57.3997 36.8045 57.0861V55.7768C36.8093 55.6 36.7786 55.424 36.7142 55.2593C36.6499 55.0945 36.5532 54.9443 36.4298 54.8176C36.3065 54.6909 36.1589 54.5901 35.996 54.5213C35.8331 54.4526 35.658 54.4171 35.4811 54.4171C35.3043 54.4171 35.1292 54.4526 34.9663 54.5213C34.8033 54.5901 34.6558 54.6909 34.5324 54.8176C34.4091 54.9443 34.3124 55.0945 34.248 55.2593C34.1837 55.424 34.153 55.6 34.1577 55.7768V57.0842ZM38.6955 78.6203C38.6955 78.4465 38.6612 78.2744 38.5947 78.1138C38.5281 77.9533 38.4306 77.8074 38.3077 77.6845C38.1847 77.5617 38.0388 77.4643 37.8782 77.3978C37.7175 77.3314 37.5454 77.2973 37.3716 77.2974H35.8852C35.5404 77.3067 35.2128 77.4503 34.9723 77.6974C34.7317 77.9446 34.5971 78.2759 34.5971 78.6208C34.5971 78.9657 34.7317 79.297 34.9723 79.5442C35.2128 79.7913 35.5404 79.9349 35.8852 79.9442H37.3716C37.5455 79.9443 37.7177 79.9102 37.8784 79.8437C38.0391 79.7772 38.1851 79.6797 38.308 79.5567C38.431 79.4338 38.5285 79.2878 38.595 79.1271C38.6615 78.9664 38.6956 78.7942 38.6955 78.6203ZM69.9071 78.6203C69.9071 78.4465 69.8728 78.2744 69.8063 78.1138C69.7398 77.9533 69.6422 77.8074 69.5193 77.6845C69.3963 77.5617 69.2504 77.4643 69.0898 77.3978C68.9292 77.3314 68.757 77.2973 68.5832 77.2974H41.649C41.3042 77.3067 40.9767 77.4503 40.7361 77.6974C40.4956 77.9446 40.361 78.2759 40.361 78.6208C40.361 78.9657 40.4956 79.297 40.7361 79.5442C40.9767 79.7913 41.3042 79.9349 41.649 79.9442H68.5832C68.7571 79.9443 68.9293 79.9102 69.09 79.8437C69.2507 79.7772 69.3967 79.6797 69.5196 79.5567C69.6426 79.4338 69.7401 79.2878 69.8066 79.1271C69.8731 78.9664 69.9072 78.7942 69.9071 78.6203ZM81.3265 78.6203C81.3265 78.2695 81.1871 77.933 80.939 77.6849C80.6909 77.4368 80.3544 77.2974 80.0035 77.2974H72.8606C72.5159 77.3067 72.1883 77.4503 71.9477 77.6974C71.7072 77.9446 71.5726 78.2759 71.5726 78.6208C71.5726 78.9657 71.7072 79.297 71.9477 79.5442C72.1883 79.7913 72.5159 79.9349 72.8606 79.9442H80.0035C80.1774 79.9442 80.3495 79.9099 80.51 79.8434C80.6706 79.7769 80.8165 79.6793 80.9393 79.5564C81.0622 79.4334 81.1596 79.2875 81.226 79.1269C81.2925 78.9663 81.3266 78.7941 81.3265 78.6203ZM56.0529 29.34C56.5682 29.3402 57.072 29.1876 57.5005 28.9014C57.9291 28.6153 58.2631 28.2085 58.4604 27.7325C58.6578 27.2564 58.7095 26.7326 58.6091 26.2272C58.5087 25.7218 58.2606 25.2575 57.8963 24.8931C57.532 24.5286 57.0678 24.2804 56.5625 24.1798C56.0571 24.0792 55.5332 24.1307 55.0571 24.3279C54.5811 24.525 54.1741 24.859 53.8878 25.2874C53.6015 25.7158 53.4487 26.2195 53.4487 26.7348C53.4507 27.425 53.7257 28.0863 54.2137 28.5744C54.7016 29.0625 55.3628 29.3377 56.0529 29.34ZM59.4071 34.6055C58.3821 35.1788 57.2273 35.4798 56.0529 35.4798C54.8785 35.4798 53.7237 35.1788 52.6987 34.6055C51.7907 35.1025 51.0045 35.7951 50.3971 36.6333C49.7897 37.4715 49.3763 38.4343 49.1868 39.4519H62.919C62.7298 38.4342 62.3165 37.4713 61.7091 36.633C61.1017 35.7948 60.3153 35.1022 59.4071 34.6055ZM89.5194 80.3816C82.4403 76.8387 78.1871 68.25 79.1394 59.4581C82.9731 58.5497 86.5329 56.7343 89.5194 54.1645C92.5067 56.7348 96.0674 58.5501 99.9023 59.4581C100.857 68.25 96.6052 76.8387 89.5194 80.3816ZM96.2316 62.5645C95.9832 62.3164 95.6464 62.177 95.2953 62.177C94.9442 62.177 94.6074 62.3164 94.359 62.5645L88.119 68.8064L84.6855 65.371C84.5631 65.2456 84.417 65.1458 84.2557 65.0773C84.0945 65.0088 83.9212 64.973 83.746 64.972C83.5708 64.971 83.3971 65.0047 83.235 65.0713C83.073 65.1379 82.9258 65.236 82.8019 65.36C82.678 65.4839 82.58 65.6312 82.5135 65.7933C82.447 65.9554 82.4133 66.129 82.4144 66.3043C82.4155 66.4795 82.4514 66.6527 82.52 66.8139C82.5885 66.9752 82.6884 67.1212 82.8139 67.2435L87.1832 71.6129C87.4316 71.8607 87.7682 71.9999 88.119 71.9999C88.4699 71.9999 88.8065 71.8607 89.0548 71.6129L96.2316 64.4371C96.4798 64.1887 96.6191 63.8519 96.6191 63.5008C96.6191 63.1497 96.4798 62.8129 96.2316 62.5645Z" fill="white" fill-opacity="0.7"/>
</svg>
