<svg width="122" height="120" viewBox="0 0 122 120" fill="none" xmlns="http://www.w3.org/2000/svg">
<path d="M37.0224 49.3213C38.1413 49.3213 39.0483 48.4142 39.0483 47.2954C39.0483 46.1765 38.1413 45.2695 37.0224 45.2695C35.9036 45.2695 34.9966 46.1765 34.9966 47.2954C34.9966 48.4142 35.9036 49.3213 37.0224 49.3213Z" fill="white" fill-opacity="0.7"/>
<path d="M48.2461 45.2695C47.1188 45.2695 46.2202 46.1844 46.2202 47.2954C46.2202 48.4063 47.1351 49.3213 48.2461 49.3213C49.357 49.3213 50.2719 48.4063 50.2719 47.2954C50.2719 46.1844 49.3734 45.2695 48.2461 45.2695Z" fill="white" fill-opacity="0.7"/>
<path d="M46.351 57.0482C44.6192 58.78 41.7928 58.78 40.0447 57.0482C39.4075 56.411 38.3782 56.411 37.7411 57.0482C37.1039 57.6854 37.1039 58.7146 37.7411 59.3518C39.2441 60.8712 41.221 61.6227 43.1978 61.6227C45.1747 61.6227 47.1515 60.8712 48.6546 59.3681C49.2917 58.731 49.2917 57.7017 48.6546 57.0645C48.0174 56.4274 46.9881 56.411 46.351 57.0482Z" fill="white" fill-opacity="0.7"/>
<path d="M90.2175 90.6058C90.2175 87.8774 88.0119 85.6719 85.2836 85.6719C82.5552 85.6719 80.3496 87.8774 80.3496 90.6058C80.3496 93.3342 82.5552 95.5398 85.2836 95.5398C88.0119 95.5398 90.2175 93.3342 90.2175 90.6058Z" fill="white" fill-opacity="0.7"/>
<path d="M77.4413 61.5259C77.4413 60.6763 78.1275 59.9902 78.9771 59.9902H91.5897C92.4392 59.9902 93.1254 60.6763 93.1254 61.5259V63.1597H96.3929V61.5259C96.3929 58.8792 94.2364 56.7227 91.5897 56.7227H78.9771C76.3304 56.7227 74.1738 58.8792 74.1738 61.5259V63.1597H77.4413V61.5259Z" fill="white" fill-opacity="0.7"/>
<path d="M57.6731 88.3196L56.023 87.6334V75.0371H53.703V75.2332C53.703 81.033 48.9815 85.7382 43.198 85.7382C37.4145 85.7382 32.6929 81.0167 32.6929 75.2332V75.0371H29.4417C18.7079 75.0371 10 83.745 10 94.4952V104.984H58.5389C57.9998 104.053 57.6731 102.974 57.6731 101.814V88.3196Z" fill="white" fill-opacity="0.7"/>
<path d="M66.7404 63.1597C66.9854 59.8105 68.3251 57.0004 69.2563 55.4157C70.449 53.3572 71.4129 51.1843 71.9684 48.8643C74.0269 40.3034 70.4163 34.7977 68.5048 32.6084C67.7369 31.7262 67.0508 30.7623 66.4463 29.7657C57.1502 14.0653 44.2598 15.0129 44.2598 15.0129C34.7187 14.6698 28.9515 21.2701 26.1742 25.714C24.6384 28.1646 22.8413 30.4355 20.7828 32.4941C7.46762 45.8419 21.0932 60.8561 21.0932 60.8561C21.1422 60.9214 21.1912 60.9705 21.2402 61.0358C21.8774 63.9929 21.812 67.5708 19.7045 71.1488C18.9856 72.3904 18.3321 73.6811 17.8093 75.0208C21.2239 72.9786 25.1939 71.7696 29.4417 71.7696H37.251V70.2175C39.1135 71.1978 41.0904 71.7859 43.1979 71.7859C45.7956 71.7859 48.2299 70.8874 50.4355 69.4333V71.7859H56.0719C56.562 66.95 60.6628 63.1597 65.6131 63.1597H66.7404ZM43.1979 68.5184C34.5227 68.5184 27.2198 54.6968 27.2198 46.0052C27.2198 41.9372 28.7555 38.0652 31.5329 35.0917H31.7453C33.8528 38.1305 37.9535 41.7738 45.4852 41.7085C51.5464 41.6758 54.6179 41.7411 56.6111 42.4273C58.1305 42.9501 59.1924 44.4205 59.1924 46.0052C59.1761 54.6968 51.8732 68.5184 43.1979 68.5184Z" fill="white" fill-opacity="0.7"/>
<path d="M50.436 75.2329V73.207C48.1814 74.3833 45.7635 75.0532 43.1985 75.0532C40.6335 75.0532 38.1992 74.367 35.9609 73.207V75.2329C35.9609 79.2356 39.2121 82.4704 43.1985 82.4704C47.1849 82.4704 50.436 79.2356 50.436 75.2329Z" fill="white" fill-opacity="0.7"/>
<path d="M85.2832 98.8084C81.7706 98.8084 78.7971 96.5702 77.6208 93.466C71.8863 92.8452 66.2989 91.5545 60.9238 89.6104V101.831C60.9238 103.579 62.3452 105 64.0933 105H106.473C108.221 105 109.642 103.579 109.642 101.831V89.6104C104.267 91.5709 98.68 92.8615 92.9455 93.466C91.7855 96.5702 88.8121 98.8084 85.2832 98.8084Z" fill="white" fill-opacity="0.7"/>
<path d="M104.97 66.4268H65.6129C62.1167 66.4268 59.2739 69.2532 59.2739 72.7657V85.4764C65.0411 87.8617 71.0533 89.3974 77.1309 90.1326C77.3923 85.8521 80.9212 82.4376 85.2834 82.4376C89.6455 82.4376 93.1744 85.8521 93.4358 90.1326C99.5134 89.3974 105.526 87.8617 111.293 85.4764V72.7657C111.293 69.2532 108.466 66.4268 104.97 66.4268Z" fill="white" fill-opacity="0.7"/>
</svg>
