<svg width="120" height="120" viewBox="0 0 120 120" fill="none" xmlns="http://www.w3.org/2000/svg">
<path d="M103.735 97.1411V92.3623L100.83 93.2919V97.1411C99.6822 97.6931 98.8833 98.8551 98.8833 100.206C98.8833 102.094 100.408 103.619 102.282 103.619C104.17 103.619 105.696 102.094 105.696 100.206C105.696 98.8551 104.882 97.6931 103.735 97.1411Z" fill="white" fill-opacity="0.7"/>
<path d="M56.2227 50.5601C57.0329 50.5601 57.6897 49.9033 57.6897 49.093C57.6897 48.2828 57.0329 47.626 56.2227 47.626C55.4124 47.626 54.7556 48.2828 54.7556 49.093C54.7556 49.9033 55.4124 50.5601 56.2227 50.5601Z" fill="white" fill-opacity="0.7"/>
<path d="M64.3569 50.5601C65.1672 50.5601 65.824 49.9033 65.824 49.093C65.824 48.2828 65.1672 47.626 64.3569 47.626C63.5467 47.626 62.8899 48.2828 62.8899 49.093C62.8899 49.9033 63.5467 50.5601 64.3569 50.5601Z" fill="white" fill-opacity="0.7"/>
<path d="M62.7885 56.3116C61.641 57.4591 59.7673 57.4591 58.6052 56.3116C58.0388 55.7451 57.1237 55.7451 56.5572 56.3116C55.9907 56.8781 55.9907 57.7932 56.5572 58.3596C57.7047 59.5071 59.2008 60.0736 60.6969 60.0736C62.193 60.0736 63.7036 59.5071 64.8366 58.3596C65.4031 57.7932 65.4031 56.8781 64.8366 56.3116C64.2701 55.7451 63.355 55.7451 62.7885 56.3116Z" fill="white" fill-opacity="0.7"/>
<path d="M55.4529 68.7285V69.295C55.4529 72.1855 57.806 74.5386 60.6965 74.5386C63.587 74.5386 65.9401 72.1855 65.9401 69.295V68.7285C64.3133 69.5274 62.5557 69.9777 60.6965 69.9777C58.8518 69.9777 57.0942 69.5274 55.4529 68.7285Z" fill="white" fill-opacity="0.7"/>
<path d="M41.6393 60.9143V59.7087C39.0102 56.2517 37.1074 51.7489 37.3689 47.0427C37.1219 47.0572 36.875 47.0863 36.6281 47.0863C31.5878 47.0863 27.5062 43.0047 27.5062 37.9644C27.5062 32.9242 31.5878 28.8426 36.6281 28.8426C40.1141 28.8426 43.1499 30.8035 44.6751 33.6795C45.1108 33.113 45.5321 32.532 45.9097 31.9219C47.4349 29.4817 50.3399 25.8649 54.8573 24.0057L52.4461 20.6067L47.9578 23.7878C46.1131 22.3062 43.9633 21.1878 41.6248 20.5196V15H31.5878V20.5051C29.2493 21.1732 27.1141 22.2917 25.2548 23.7732L20.7956 20.6067L15 28.799L19.4883 31.98C18.8347 33.8538 18.457 35.8583 18.457 37.9644C18.457 40.0706 18.8347 42.0751 19.4883 43.9488L15 47.1298L20.7956 55.3221L25.2839 52.1411C27.1286 53.6226 29.2783 54.7411 31.6169 55.4092V60.9143H41.6393Z" fill="white" fill-opacity="0.7"/>
<path d="M70.6463 69.0195H68.8452V69.1503C68.8452 71.1693 68.1044 73.014 66.8843 74.4374H80.7849C81.119 74.4374 81.4386 74.452 81.7727 74.481C79.2017 71.1693 75.1782 69.0195 70.6463 69.0195Z" fill="white" fill-opacity="0.7"/>
<path d="M50.7469 69.0195C46.2151 69.0195 42.2061 71.1693 39.6206 74.481C39.9402 74.452 40.2742 74.4374 40.5938 74.4374H54.4945C53.2743 73.014 52.5336 71.1693 52.5336 69.1503V69.0195H50.7469Z" fill="white" fill-opacity="0.7"/>
<path d="M61.554 89.7613L81.9183 96.2687L102.297 89.7613L81.9183 83.2686L61.554 89.7613Z" fill="white" fill-opacity="0.7"/>
<path d="M56.3249 88.3829L81.9184 80.2052L88.3676 82.2678C87.0749 79.3628 84.1698 77.3438 80.8 77.3438H40.6086C36.0332 77.3438 32.3147 81.0477 32.3147 85.6377V105H66.7541V94.4981L56.3249 91.1718C54.9886 90.7215 54.9886 88.8187 56.3249 88.3829Z" fill="white" fill-opacity="0.7"/>
<path d="M69.6733 95.4258V104.998H94.1629V95.4258L81.9181 99.3331L69.6733 95.4258Z" fill="white" fill-opacity="0.7"/>
<path d="M48.3798 33.4621C47.2614 35.2342 45.9686 36.8901 44.4871 38.3716C35.5831 47.3047 43.325 57.2544 44.5452 58.707C45.4602 60.8422 46.2156 64.0523 44.7776 67.364C46.6368 66.6668 48.6413 66.2601 50.7474 66.2601H52.5486V62.9483C54.829 65.4176 57.6179 67.088 60.6972 67.088C63.7766 67.088 66.5654 65.4176 68.8459 62.9483V66.1148H70.647C74.2493 66.1148 77.6627 67.2623 80.5097 69.3104C80.1175 68.2936 79.6381 67.2914 79.0717 66.3473C76.3119 61.6556 78.4035 56.9494 79.551 54.9595C80.4225 53.4779 81.1052 51.8946 81.5119 50.2242C83.008 44.0365 80.3935 40.042 79.0136 38.4588C78.4616 37.8197 77.9532 37.1225 77.532 36.3962C70.7923 25.0229 61.4816 25.7201 61.4816 25.7201C54.553 25.4732 50.3988 30.252 48.3798 33.4621ZM60.6972 64.1685C54.5676 64.1685 49.3966 54.3203 49.3966 48.1471C49.3966 45.3002 50.4569 42.584 52.2726 40.5359C53.8704 42.7583 56.8771 45.3292 62.3531 45.3147C66.7107 45.2856 68.904 45.3292 70.3129 45.8231C71.3007 46.1717 71.9979 47.1158 71.9979 48.1616C71.9979 54.3203 66.8269 64.1685 60.6972 64.1685Z" fill="white" fill-opacity="0.7"/>
</svg>
